#!OML:ASF F:\VICON\USERDATA\INSTALL\SteveWalk\SteveWalk.ASF
:FULLY-SPECIFIED
:DEGREES
227
root 0.259186 16.2986 5.68616 17.112 3.42524 -0.811961
lowerback -14.5746 -0.89409 2.60725
upperback -4.62984 -1.65591 2.53899
thorax 3.27576 -0.813131 0.904513
lowerneck -5.57589 -1.69658 -0.811685
upperneck 9.49328 -2.07972 -1.25529
head 4.09563 -1.11601 -0.384864
rclavicle 1.63749e-014 -5.56597e-015
rhumerus -71.5564 -44.8787 -27.0768
rradius 12.4937
rwrist 43.4294
rhand -13.9871 -35.7454
rfingers 7.12502
rthumb 12.1415 -65.373
lclavicle 1.63749e-014 -5.56597e-015
lhumerus -31.0579 -4.94845 88.2394
lradius 49.781
lwrist 9.71929
lhand -24.7602 -21.0449
lfingers 7.12502
lthumb 1.74318 8.92768
rfemur -42.7462 -1.28173 25.2748
rtibia 38.8881
rfoot -14.2823 2.65942
rtoes -13.6612
lfemur -23.11 0.228093 -17.0749
ltibia 68.7493
lfoot 14.4128 -9.08346
ltoes -17.5935
228
root 0.243727 16.3259 5.8814 17.2231 3.28307 -0.602874
lowerback -14.634 -0.830277 2.16741
upperback -4.645 -1.51048 2.52902
thorax 3.30378 -0.740405 1.16604
lowerneck -5.68828 -1.67707 -0.795133
upperneck 9.77309 -2.04298 -1.33079
head 4.2177 -1.10246 -0.415351
rclavicle 3.08116e-015 -1.74931e-014
rhumerus -67.8409 -44.8782 -31.5134
rradius 12.7587
rwrist 40.9897
rhand -14.5399 -34.5802
rfingers 7.12502
rthumb 11.6085 -64.2386
lclavicle 3.08116e-015 -1.74931e-014
lhumerus -31.5078 -4.80801 88.6605
lradius 48.2409
lwrist 8.88629
lhand -24.5321 -20.6487
lfingers 7.12502
lthumb 1.96347 9.32202
rfemur -41.974 -1.34374 25.1455
rtibia 38.7206
rfoot -14.877 2.77977
rtoes -12.2235
lfemur -24.6671 0.55507 -17.3928
ltibia 70.1104
lfoot 11.7691 -8.78415
ltoes -13.4208
229
root 0.237977 16.3677 6.07334 17.2868 3.35193 -0.507974
lowerback -14.5992 -0.796675 1.99125
upperback -4.65819 -1.43958 2.54397
thorax 3.27568 -0.705087 1.29379
lowerneck -5.87987 -1.62088 -0.817274
upperneck 10.1082 -1.95779 -1.34167
head 4.37786 -1.06392 -0.416264
rclavicle -4.67144e-015 2.46493e-014
rhumerus -63.6013 -44.4681 -36.5749
rradius 13.1815
rwrist 37.9843
rhand -14.9163 -34.2844
rfingers 7.12502
rthumb 11.2455 -63.9629
lclavicle -4.67144e-015 2.46493e-014
lhumerus -31.7507 -4.36381 89.0085
lradius 46.2279
lwrist 7.65782
lhand -24.1993 -21.1638
lfingers 7.12502
lthumb 2.28489 8.80372
rfemur -41.0737 -1.65564 25.1622
rtibia 38.4693
rfoot -15.7578 2.83197
rtoes -12.7194
lfemur -26.7167 0.717561 -17.6026
ltibia 71.4077
lfoot 10.8532 -7.87568
ltoes -2.93316
230
root 0.229178 16.395 6.2651 17.3739 3.6889 -0.605156
lowerback -14.5851 -0.81784 2.08072
upperback -4.87534 -1.47258 2.58141
thorax 3.03858 -0.722849 1.27887
lowerneck -5.08909 -1.66003 -0.828285
upperneck 9.95895 -2.02092 -1.34881
head 4.16457 -1.09309 -0.408886
rclavicle -1.6524e-015 -1.19271e-014
rhumerus -58.4159 -42.2831 -43.4875
rradius 14.0406
rwrist 32.811
rhand -15.0542 -34.8629
rfingers 7.12502
rthumb 11.1125 -64.5487
lclavicle -1.6524e-015 -1.19271e-014
lhumerus -32.395 -3.67807 89.1046
lradius 44.0499
lwrist 5.74709
lhand -23.741 -22.0825
lfingers 7.12502
lthumb 2.72748 7.87977
rfemur -40.2035 -1.96757 25.3951
rtibia 38.1536
rfoot -16.5352 2.68342
rtoes -13.4649
lfemur -28.4602 0.639284 -17.5246
ltibia 72.3849
lfoot 7.62045 -6.59391
ltoes -4.3647
231
root 0.213658 16.4224 6.46346 17.5253 3.77386 -0.614249
lowerback -14.79 -0.800568 1.98269
upperback -4.99848 -1.43858 2.58303
thorax 3.02132 -0.705571 1.34007
lowerneck -4.55665 -1.74755 -0.872562
upperneck 9.9276 -2.13908 -1.38194
head 4.04689 -1.15312 -0.411078
rclavicle 9.38015e-015 -1.98785e-014
rhumerus -54.5458 -40.7822 -48.2922
rradius 14.6513
rwrist 29.3863
rhand -14.9766 -35.0454
rfingers 7.12502
rthumb 11.1873 -64.7272
lclavicle 9.38015e-015 -1.98785e-014
lhumerus -32.9387 -2.9278 89.0943
lradius 42.0143
lwrist 3.91832
lhand -22.8064 -22.2347
lfingers 7.12502
lthumb 3.63004 7.71415
rfemur -39.3914 -1.97938 25.4819
rtibia 37.6926
rfoot -16.6485 2.79298
rtoes -11.0817
lfemur -30.1157 0.78566 -17.5999
ltibia 73.0795
lfoot 6.21906 -5.81157
ltoes -1.56063
232
root 0.201574 16.4614 6.67413 17.4287 3.65523 -0.640786
lowerback -15.1106 -0.694679 1.90853
upperback -4.75051 -1.30754 2.56623
thorax 3.45437 -0.637659 1.38192
lowerneck -4.87714 -1.77553 -1.08304
upperneck 10.2961 -2.1671 -1.21018
head 4.24805 -1.16969 -0.326057
rclavicle 5.25537e-015 7.95139e-016
rhumerus -50.5553 -39.3382 -53.0417
rradius 15.4697
rwrist 26.1524
rhand -15.1387 -34.9592
rfingers 7.12502
rthumb 11.031 -64.6493
lclavicle 5.25537e-015 7.95139e-016
lhumerus -33.1044 -2.42294 89.1963
lradius 40.21
lwrist 3.04
lhand -21.6956 -21.2951
lfingers 7.12502
lthumb 4.70269 8.63271
rfemur -38.2677 -1.89071 25.5231
rtibia 37.1878
rfoot -16.8666 3.09032
rtoes -8.0033
lfemur -31.3765 1.22259 -17.7515
ltibia 73.4619
lfoot 4.51397 -4.92374
ltoes -5.3237
233
root 0.197016 16.5011 6.88084 17.2605 3.69841 -0.74857
lowerback -15.1995 -0.634608 2.13534
upperback -4.61891 -1.26689 2.50565
thorax 3.63377 -0.616335 1.19581
lowerneck -5.15691 -1.72446 -1.10654
upperneck 10.8055 -2.09204 -1.15925
head 4.49026 -1.13447 -0.309399
rclavicle 3.47873e-016 1.19271e-014
rhumerus -46.6397 -36.487 -58.4394
rradius 16.8508
rwrist 21.3612
rhand -15.5324 -35.1937
rfingers 7.12502
rthumb 10.6512 -64.9037
lclavicle 3.47873e-016 1.19271e-014
lhumerus -33.555 -1.84975 89.1792
lradius 38.357
lwrist 2.53059
lhand -21.2276 -20.8126
lfingers 7.12502
lthumb 5.15461 9.10474
rfemur -36.9804 -2.04748 25.7003
rtibia 36.6113
rfoot -17.5296 3.23082
rtoes -8.28814
lfemur -32.6883 1.45427 -17.8281
ltibia 73.6831
lfoot 4.35222 -3.72005
ltoes -2.99976
234
root 0.190005 16.5236 7.07305 17.1372 3.69077 -0.508269
lowerback -14.9439 -0.626772 1.88464
upperback -4.66056 -1.2037 2.39386
thorax 3.45523 -0.586637 1.23371
lowerneck -5.14847 -1.68812 -1.00658
upperneck 11.0802 -2.04079 -1.24104
head 4.58668 -1.11059 -0.354609
rclavicle 3.44146e-015 -2.54444e-014
rhumerus -43.4798 -33.7353 -62.6328
rradius 18.0302
rwrist 17.0908
rhand -15.8125 -35.1863
rfingers 7.12502
rthumb 10.381 -64.91
lclavicle 3.44146e-015 -2.54444e-014
lhumerus -34.0451 -1.21041 89.198
lradius 36.1501
lwrist 1.97902
lhand -21.2761 -21.1161
lfingers 7.12502
lthumb 5.10774 8.8023
rfemur -35.6763 -2.29946 25.4992
rtibia 36.1011
rfoot -18.2063 3.21806
rtoes -9.04251
lfemur -34.165 1.60643 -18.3348
ltibia 73.7619
lfoot 3.90479 -2.60947
ltoes 0.753598
235
root 0.177035 16.5379 7.26692 17.0722 3.54391 -0.53357
lowerback -14.865 -0.568729 1.74899
upperback -4.63973 -1.10617 2.40838
thorax 3.43686 -0.538365 1.34326
lowerneck -5.03511 -1.63628 -0.925014
upperneck 11.1105 -1.97008 -1.32748
head 4.57281 -1.07655 -0.393319
rclavicle 6.88292e-015 -9.54166e-015
rhumerus -40.6821 -31.3979 -65.9817
rradius 19.1862
rwrist 13.8712
rhand -15.9749 -35.2074
rfingers 7.12502
rthumb 10.2244 -64.9389
lclavicle 6.88292e-015 -9.54166e-015
lhumerus -34.4513 -0.384376 89.1395
lradius 33.8721
lwrist 1.27528
lhand -21.3299 -21.6092
lfingers 7.12502
lthumb 5.0558 8.31053
rfemur -34.4877 -2.20804 25.5368
rtibia 35.629
rfoot -18.6633 3.29378
rtoes -8.15991
lfemur -35.5602 1.95733 -18.5783
ltibia 73.7058
lfoot 0.865986 -1.3665
ltoes -5.83259
236
root 0.185684 16.5562 7.46531 17.0664 3.89374 -0.209364
lowerback -14.8776 -0.674376 1.67822
upperback -4.7413 -1.22684 2.29604
thorax 3.33724 -0.598782 1.24459
lowerneck -4.62676 -1.62858 -1.05879
upperneck 11.155 -1.95597 -1.30103
head 4.50805 -1.07317 -0.355474
rclavicle -1.08089e-015 1.35174e-014
rhumerus -38.4848 -28.2912 -69.1123
rradius 20.7732
rwrist 10.2858
rhand -16.0843 -35.7697
rfingers 7.12502
rthumb 10.1188 -65.5064
lclavicle -1.08089e-015 1.35174e-014
lhumerus -35.1679 0.311611 89.0646
lradius 31.7375
lwrist 0.288116
lhand -21.5725 -21.7486
lfingers 7.12502
lthumb 4.82159 8.17654
rfemur -33.4414 -3.31824 25.4121
rtibia 35.3087
rfoot -19.45 3.76938
rtoes -8.32624
lfemur -36.8333 1.64469 -19.2161
ltibia 73.3995
lfoot -0.646253 -0.250637
ltoes -6.74168
237
root 0.163011 16.5581 7.66666 16.8135 3.65141 -0.369118
lowerback -14.6633 -0.570063 1.54635
upperback -4.78334 -1.0641 2.33226
thorax 3.17927 -0.518475 1.38724
lowerneck -4.31382 -1.64686 -0.953381
upperneck 11.3351 -1.97496 -1.45906
head 4.50731 -1.0861 -0.426583
rclavicle 1.41386e-014 -1.59028e-015
rhumerus -36.8273 -25.7064 -71.5563
rradius 22.4512
rwrist 7.20563
rhand -16.063 -35.9378
rfingers 7.12502
rthumb 10.1394 -65.6735
lclavicle 1.41386e-014 -1.59028e-015
lhumerus -35.7503 1.34439 88.6779
lradius 29.4852
lwrist -1.43451
lhand -21.516 -21.7017
lfingers 7.12502
lthumb 4.87613 8.22224
rfemur -32.1531 -2.90922 25.5665
rtibia 35.0204
rfoot -19.9443 3.38869
rtoes -8.82764
lfemur -37.9132 2.16516 -19.245
ltibia 72.9814
lfoot -0.905417 0.240063
ltoes -1.57096
238
root 0.145853 16.5573 7.8651 16.6693 3.28801 -0.452521
lowerback -14.5608 -0.440242 1.45827
upperback -4.72956 -0.877515 2.28918
thorax 3.17881 -0.426123 1.42405
lowerneck -4.38187 -1.61726 -0.811345
upperneck 11.6185 -1.93017 -1.5715
head 4.62217 -1.06528 -0.491419
rclavicle 2.40405e-015 -2.38542e-015
rhumerus -34.9161 -23.4746 -73.73
rradius 23.8699
rwrist 4.57585
rhand -16.1182 -35.9196
rfingers 7.12502
rthumb 10.0861 -65.6579
lclavicle 2.40405e-015 -2.38542e-015
lhumerus -36.1247 2.68254 88.0355
lradius 27.3912
lwrist -3.32784
lhand -21.4616 -20.9349
lfingers 7.12502
lthumb 4.92865 8.98781
rfemur -31.0865 -2.64726 25.6721
rtibia 34.8615
rfoot -20.4842 3.04815
rtoes -10.6003
lfemur -39.0561 2.75362 -19.4577
ltibia 72.3513
lfoot -2.36317 0.508116
ltoes -2.11806
239
root 0.145664 16.5696 8.06038 16.6328 3.4633 -0.33374
lowerback -14.5394 -0.491479 1.51194
upperback -4.74454 -0.947012 2.18338
thorax 3.14996 -0.461189 1.27114
lowerneck -4.31247 -1.55787 -0.668051
upperneck 11.7192 -1.84989 -1.67836
head 4.64277 -1.02517 -0.549073
rclavicle 8.44214e-015 -1.43125e-014
rhumerus -33.3487 -21.1584 -75.6066
rradius 25.484
rwrist 2.12846
rhand -16.2366 -36.1452
rfingers 7.12502
rthumb 9.97186 -65.889
lclavicle 8.44214e-015 -1.43125e-014
lhumerus -36.7698 3.94592 87.3484
lradius 25.6453
lwrist -4.7914
lhand -20.9456 -19.7837
lfingers 7.12502
lthumb 5.42686 10.1268
rfemur -30.2132 -3.48399 25.7197
rtibia 34.774
rfoot -21.1589 3.55217
rtoes -10.1036
lfemur -40.15 2.61369 -19.8378
ltibia 71.4619
lfoot -4.79055 1.48591
ltoes -6.89423
240
root 0.139066 16.5619 8.25831 16.6116 3.50541 -0.10517
lowerback -14.648 -0.540224 1.24093
upperback -4.69532 -0.974269 2.11387
thorax 3.26395 -0.474121 1.34582
lowerneck -4.26083 -1.52764 -0.622434
upperneck 11.7512 -1.80578 -1.74211
head 4.64322 -1.00462 -0.576165
rclavicle -1.6027e-015 2.54444e-014
rhumerus -32.0132 -18.5278 -77.3165
rradius 27.3829
rwrist -0.567925
rhand -16.5192 -35.4706
rfingers 7.12502
rthumb 9.69925 -65.2273
lclavicle -1.6027e-015 2.54444e-014
lhumerus -37.0814 5.20089 86.7232
lradius 23.5542
lwrist -5.89086
lhand -20.4958 -19.3383
lfingers 7.12502
lthumb 5.86111 10.5606
rfemur -29.4021 -4.09815 25.6042
rtibia 34.7716
rfoot -21.8672 3.98991
rtoes -9.25406
lfemur -41.2146 2.61886 -20.3642
ltibia 70.4122
lfoot -5.99706 2.27076
ltoes -8.08357
